<svg width="289" height="142" viewBox="0 0 289 142" fill="none" xmlns="http://www.w3.org/2000/svg">
<path d="M137.9 59.2004V47.2004C137.9 34.3004 132.7 22.6004 124.2 14.1004C116.3 6.2004 105.5 1.00039 93.6 0.400391H81.1H46.8H0V23.8004C0 36.7004 10.5 47.2004 23.4 47.2004H46.8H81.1H85.1C88.4 47.2004 91.1 49.9004 91.1 53.2004C91.1 56.5004 88.4 59.2004 85.1 59.2004H46.8C21 59.2004 0 80.1004 0 106V141.9H46.8V106.3L67.1 132.3C71.8 138.4 79.1 141.9 86.8 141.9H144.2L112.2 100.9C127.4 93.2004 137.9 77.4004 137.9 59.2004Z" fill="white"/>
<path d="M288.3 141.901H230.9C223.2 141.901 215.9 138.301 211.2 132.301L190.9 106.301V141.901H164.4L144.1 115.901V105.901C144.1 93.0008 149.3 81.3008 157.8 72.8008C166.3 64.3008 178 59.1008 190.9 59.1008H229.2C230.9 59.1008 232.3 58.4008 233.4 57.3008C234.5 56.2008 235.2 54.7008 235.2 53.1008C235.2 49.8008 232.5 47.1008 229.2 47.1008H153.8C153.8 30.3008 147.3 14.6008 135.4 2.70081C134.6 1.90081 133.7 1.10078 132.9 0.300781H190.9L235.2 0.400787H237.7C249.6 1.00079 260.4 6.10079 268.3 14.0008C276.8 22.5008 282 34.2008 282 47.1008V59.1008C282 77.4008 271.5 93.2008 256.3 100.901L288.3 141.901Z" fill="white"/>
</svg>
